<svg width="25" height="25" viewBox="0 0 25 25" fill="none" xmlns="http://www.w3.org/2000/svg">
<path d="M13.4938 1.77084C13.4274 1.55931 13.2953 1.37446 13.1166 1.24319C12.938 1.11192 12.7221 1.04107 12.5004 1.04095C12.2787 1.04084 12.0627 1.11146 11.8839 1.24254C11.7051 1.37363 11.5728 1.55834 11.5063 1.7698L9.23126 8.97814L2.08438 8.97293C1.86157 8.97241 1.64446 9.04334 1.46494 9.17532C1.28542 9.3073 1.15295 9.49336 1.08699 9.70619C1.02102 9.91901 1.02503 10.1474 1.09843 10.3577C1.17183 10.5681 1.31075 10.7494 1.4948 10.875L7.22188 14.7938L5.06876 21.6115C5.00379 21.8196 5.00577 22.0429 5.07441 22.2498C5.14305 22.4568 5.2749 22.6369 5.45137 22.765C5.62785 22.893 5.84005 22.9625 6.05808 22.9635C6.27611 22.9646 6.48897 22.8972 6.66667 22.7708L12.5 18.5979L18.3271 22.7719C18.5048 22.8992 18.7181 22.9674 18.9368 22.9668C19.1554 22.9661 19.3683 22.8967 19.5453 22.7684C19.7223 22.64 19.8545 22.4592 19.923 22.2515C19.9915 22.0439 19.9929 21.82 19.9271 21.6115L17.774 14.7938L23.5052 10.875C23.6893 10.7494 23.8282 10.5681 23.9016 10.3577C23.975 10.1474 23.979 9.91901 23.913 9.70619C23.8471 9.49336 23.7146 9.3073 23.5351 9.17532C23.3556 9.04334 23.1384 8.97241 22.9156 8.97293L15.7636 8.97814L13.4938 1.77084Z" fill="#FFD700"/>
</svg>
