<svg width="21" height="22" viewBox="0 0 21 22" fill="none" xmlns="http://www.w3.org/2000/svg">
<g clip-path="url(#clip0_138_105)">
<path d="M18.25 0.828125H2.75002C1.41422 0.828125 0.328125 1.91455 0.328125 3.25002V18.75C0.328125 20.0855 1.41455 21.1719 2.75002 21.1719H18.25C19.5855 21.1719 20.6719 20.0855 20.6719 18.75V3.25002C20.6719 1.91422 19.5855 0.828125 18.25 0.828125ZM16.3154 9.70325C16.2045 9.71419 16.0931 9.71988 15.9813 9.72031C15.3787 9.72044 14.7855 9.57049 14.2553 9.28401C13.7252 8.99752 13.2747 8.58351 12.9445 8.07936V13.6673C12.9446 14.4843 12.7024 15.2829 12.2486 15.9622C11.7947 16.6415 11.1496 17.171 10.3949 17.4836C9.64014 17.7963 8.80962 17.8781 8.00837 17.7187C7.20711 17.5594 6.47111 17.166 5.89343 16.5883C5.31576 16.0106 4.92237 15.2746 4.76301 14.4734C4.60364 13.6721 4.68547 12.8416 4.99813 12.0869C5.31079 11.3321 5.84025 10.687 6.51955 10.2332C7.19885 9.77935 7.99747 9.53715 8.81442 9.53722C8.90072 9.53722 8.98505 9.54477 9.0697 9.55034V11.5857C8.98505 11.5755 8.9017 11.5601 8.81442 11.5601C8.53761 11.5601 8.26351 11.6146 8.00777 11.7206C7.75203 11.8265 7.51966 11.9818 7.32393 12.1775C7.12819 12.3732 6.97293 12.6056 6.867 12.8613C6.76107 13.1171 6.70655 13.3912 6.70655 13.668C6.70655 13.9448 6.76107 14.2189 6.867 14.4746C6.97293 14.7304 7.12819 14.9627 7.32393 15.1585C7.51966 15.3542 7.75203 15.5095 8.00777 15.6154C8.26351 15.7213 8.53761 15.7759 8.81442 15.7759C9.97894 15.7759 11.0073 14.8584 11.0073 13.6942L11.0276 4.20322H12.9747C13.0637 5.04923 13.4473 5.83705 14.0583 6.42893C14.6693 7.02082 15.4689 7.3791 16.3173 7.44116V9.70325" fill="white"/>
</g>
<defs>
<clipPath id="clip0_138_105">
<rect width="21" height="21" fill="white" transform="translate(0 0.5)"/>
</clipPath>
</defs>
</svg>
